<?xml version="1.0" encoding="UTF-8"?>
<svg xmlns="http://www.w3.org/2000/svg" xmlns:xlink="http://www.w3.org/1999/xlink" viewBox="0 0 32 32" width="32px" height="32px">
<g id="surface21664556">
<path style=" stroke:none;fill-rule:nonzero;fill:rgb(100%,100%,100%);fill-opacity:1;" d="M 4.8125 2.390625 L 3.390625 3.8125 L 4.101562 4.515625 L 5.515625 5.929688 L 6.21875 6.640625 L 7.640625 5.21875 L 6.929688 4.515625 L 5.515625 3.101562 Z M 27.1875 2.390625 L 26.484375 3.101562 L 24.367188 5.21875 L 25.78125 6.640625 L 26.484375 5.929688 L 28.601562 3.8125 Z M 16 4 C 11.59375 4 8 7.59375 8 12 C 8 14.765625 9.210938 16.359375 10.1875 17.71875 C 11.171875 19.070312 12 20.21875 12 23 L 12 25 C 12 26.296875 12.851562 27.40625 14.015625 27.8125 C 14.007812 27.875 14 27.9375 14 28 C 14 29.101562 14.898438 30 16 30 C 17.101562 30 18 29.101562 18 28 C 18 27.9375 18 27.875 17.992188 27.8125 C 19.15625 27.398438 20 26.296875 20 25 L 20 23 C 20 20.21875 20.828125 19.070312 21.8125 17.71875 C 22.789062 16.359375 24 14.765625 24 12 C 24 7.59375 20.40625 4 16 4 Z M 16 6 C 19.328125 6 22 8.671875 22 12 C 22 14.234375 21.210938 15.140625 20.1875 16.53125 C 19.304688 17.757812 18.429688 19.484375 18.1875 22 L 13.8125 22 C 13.570312 19.484375 12.695312 17.757812 11.8125 16.53125 C 10.789062 15.140625 10 14.234375 10 12 C 10 8.671875 12.671875 6 16 6 Z M 2 12 L 2 14 L 6 14 L 6 12 Z M 26 12 L 26 14 L 30 14 L 30 12 Z M 6.21875 19.359375 L 5.515625 20.070312 L 4.101562 21.484375 L 3.390625 22.1875 L 4.8125 23.601562 L 6.929688 21.484375 L 7.640625 20.78125 Z M 25.78125 19.359375 L 24.367188 20.78125 L 27.1875 23.601562 L 28.601562 22.1875 L 26.484375 20.070312 Z M 14 24 L 18 24 L 18 25 C 18 25.5625 17.5625 26 17 26 L 15 26 C 14.4375 26 14 25.5625 14 25 Z M 14 24 "/>
</g>
</svg>
