<?xml version="1.0" encoding="UTF-8"?>
<svg xmlns="http://www.w3.org/2000/svg" xmlns:xlink="http://www.w3.org/1999/xlink" viewBox="0 0 32 32" width="32px" height="32px">
<g id="surface21659927">
<path style=" stroke:none;fill-rule:nonzero;fill:rgb(100%,100%,100%);fill-opacity:1;" d="M 16 4 C 12.695312 4 10 6.695312 10 10 C 10 13.304688 12.695312 16 16 16 C 19.304688 16 22 13.304688 22 10 C 22 6.695312 19.304688 4 16 4 Z M 16 16 C 10.492188 16 6 20.492188 6 26 L 8 26 C 8 21.570312 11.570312 18 16 18 C 20.429688 18 24 21.570312 24 26 L 26 26 C 26 20.492188 21.507812 16 16 16 Z M 16 6 C 18.21875 6 20 7.78125 20 10 C 20 12.21875 18.21875 14 16 14 C 13.78125 14 12 12.21875 12 10 C 12 7.78125 13.78125 6 16 6 Z M 16 6 "/>
</g>
</svg>
